<svg width="64" height="38" viewBox="0 0 64 38" fill="none" xmlns="http://www.w3.org/2000/svg">
<path d="M16.8347 25.9857L13.7541 22.8609L18.7496 24.1602L20.2482 22.7128C20.2482 22.7128 16.6515 21.4958 16.4517 21.5287C16.2519 21.5616 17.226 19.3495 15.361 18.3792C14.9004 18.1755 14.3882 18.1145 13.8919 18.204C13.3955 18.2936 12.9382 18.5295 12.5802 18.8808L9.62457 21.7672L15.3277 27.4413L16.8347 25.9857ZM12.3221 21.43C12.6651 21.0613 13.0322 20.7152 13.4211 20.3939C13.5909 20.2547 13.8074 20.1835 14.0277 20.1941C14.2481 20.2048 14.4564 20.2966 14.6117 20.4514C14.7273 20.5381 14.821 20.65 14.8855 20.7784C14.95 20.9068 14.9836 21.0482 14.9836 21.1915C14.9836 21.3349 14.95 21.4763 14.8855 21.6047C14.821 21.733 14.7273 21.845 14.6117 21.9316C14.3189 22.2463 14.0015 22.5377 13.6626 22.8033L12.3221 21.43Z" fill="white"/>
<path d="M6.61896 38H57.073L31.9792 13.2231L6.61896 38Z" fill="white"/>
<path d="M8.27579 31.6434L5.81137 34.0281L1.45701 29.6204L0 31.0266L5.65318 36.7583L9.59126 32.9755L8.27579 31.6434Z" fill="white"/>
<path d="M14.4785 28.2307L13.3712 27.1123L10.8152 29.5711L9.59127 28.3294L11.6394 26.3558L10.4821 25.1798L8.42566 27.1534L7.37662 26.0926L9.84937 23.7079L8.74204 22.5895L4.72903 26.4544L10.4488 32.1121L14.4785 28.2307Z" fill="white"/>
<path d="M23.6701 19.4728C24.0624 19.099 24.3737 18.6504 24.585 18.1541C24.7964 17.6578 24.9033 17.1242 24.8994 16.5858C24.8955 16.0475 24.7809 15.5155 24.5624 15.0222C24.3439 14.529 24.0262 14.0847 23.6285 13.7165C22.8509 12.9771 21.821 12.5526 20.742 12.5267C19.663 12.5008 18.6134 12.8755 17.8004 13.5767C17.3989 13.9504 17.0766 14.3993 16.8523 14.8971C16.6279 15.395 16.506 15.9319 16.4936 16.4767C16.4812 17.0215 16.5786 17.5633 16.7801 18.0706C16.9815 18.5779 17.2831 19.0405 17.6672 19.4317C18.0429 19.8439 18.5012 20.1744 19.0132 20.4022C19.5252 20.63 20.0795 20.75 20.641 20.7546C21.2025 20.7592 21.7588 20.6484 22.2746 20.4292C22.7903 20.2099 23.2542 19.887 23.6368 19.481L23.6701 19.4728ZM18.966 14.802C19.4906 14.2921 20.5646 13.8398 21.8384 15.1309C23.3121 16.6276 23.3121 17.4828 22.4795 18.3462C21.6469 19.2097 20.4813 18.9794 19.2325 17.7048C18.1751 16.6358 18.2334 15.5667 19.0077 14.8266" fill="white"/>
<path d="M28.166 15.0734L29.648 13.6425L27.4167 11.3811L26.0762 5.8797L24.3694 7.52436L25.2603 10.641L22.263 9.55553L20.6562 11.1015L25.7598 12.7133L28.166 15.0734Z" fill="white"/>
<path d="M30.8052 4.01298L28.8653 8.12465L29.7312 8.97987L33.8941 7.11318L30.8469 10.0982L32.2456 11.4798L38.007 5.83856L36.192 4.02943L31.9542 5.91257L34.0356 1.88314L32.1457 0L26.3843 5.64943L27.6997 6.96516L30.8052 4.01298Z" fill="white"/>
<path d="M37.7156 16.9319L38.8979 15.7641L36.4085 13.2889L37.674 12.0554L39.6389 14.0126L40.8544 12.8284L38.8729 10.8548L39.8137 9.9338L42.3198 12.4337L43.4854 11.2907L39.4807 7.30234L33.7109 12.9518L37.7156 16.9319Z" fill="white"/>
<path d="M40.4964 19.736L43.6435 16.6522L42.5112 21.7096L44.0265 23.2227C44.0265 23.2227 45.2254 19.5797 45.2671 19.4235C45.7192 19.6237 46.2226 19.6821 46.7094 19.5909C47.1962 19.4998 47.643 19.2634 47.9896 18.9136C48.3647 18.5483 48.5996 18.0657 48.6543 17.5482C48.7089 17.0307 48.5799 16.5105 48.2893 16.0766L44.7842 12.5817L39.0061 18.2229L40.4964 19.736ZM45.1255 15.1967L46.1912 16.2493C46.3078 16.3644 47.0238 16.9236 46.1912 17.7542C45.9785 17.8911 45.724 17.9504 45.4717 17.9219C45.2194 17.8934 44.9851 17.7788 44.8092 17.5979L43.7934 16.5453L45.1672 15.1967" fill="white"/>
<path d="M49.0553 28.2225L50.454 26.8492L48.0146 24.4233L52.3773 20.1472L50.8953 18.667L45.1255 24.3164L49.0553 28.2225Z" fill="white"/>
<path d="M55.8588 23.6148L50.0948 29.2604L51.5428 30.7026L57.3068 25.057L55.8588 23.6148Z" fill="white"/>
<path d="M62.6762 30.4099L58.863 34.1433L60.5448 28.28L58.5799 26.3229L52.8102 31.9723L54.1673 33.3209L57.9971 29.5053L56.5151 35.6563L58.2386 37.375L64 31.7256L62.6762 30.4099Z" fill="white"/>
</svg>
