<svg width="138" height="29" viewBox="0 0 138 29" fill="none" xmlns="http://www.w3.org/2000/svg">
<path d="M66.1716 1.35812e-06C63.3301 -0.0012397 60.552 0.848115 58.1888 2.44064C55.8255 4.03317 53.9833 6.29732 52.895 8.94674C51.8068 11.5962 51.5214 14.5118 52.075 17.325C52.6286 20.1381 53.9963 22.7223 56.0051 24.7508C58.0139 26.7793 60.5736 28.1609 63.3605 28.7209C66.1473 29.2809 69.0361 28.9941 71.6614 27.8968C74.2868 26.7996 76.5307 24.9411 78.1095 22.5564C79.6883 20.1718 80.531 17.3681 80.531 14.5C80.531 10.6554 79.0184 6.96827 76.3256 4.24917C73.6329 1.53007 69.9805 0.00166495 66.1716 1.35812e-06Z" fill="white"/>
<path d="M121.483 0L104.961 28.9937H138L121.483 0Z" fill="white"/>
<path d="M80.5435 0L97.0662 28.9937L113.583 0H80.5435Z" fill="white"/>
<path d="M11.0587 0H0V28.9937H11.0587V0Z" fill="white"/>
<path d="M35.2211 17.8317L17.5546 0V28.9937H35.2211H46.2798V0H35.2211V17.8317Z" fill="white"/>
</svg>
